<svg width="2251" height="1949" viewBox="0 0 2251 1949" fill="none" xmlns="http://www.w3.org/2000/svg">
<path d="M354.8 1898.4C341.867 1898.4 330.133 1895.4 319.6 1889.4C309.067 1883.27 300.733 1874.8 294.6 1864C288.6 1853.07 285.6 1840.73 285.6 1827C285.6 1813.27 288.6 1801 294.6 1790.2C300.733 1779.27 309.067 1770.8 319.6 1764.8C330.133 1758.67 341.867 1755.6 354.8 1755.6C367.867 1755.6 379.667 1758.67 390.2 1764.8C400.733 1770.8 409 1779.27 415 1790.2C421 1801 424 1813.27 424 1827C424 1840.73 421 1853.07 415 1864C409 1874.8 400.733 1883.27 390.2 1889.4C379.667 1895.4 367.867 1898.4 354.8 1898.4ZM354.8 1886.2C365.2 1886.2 374.533 1883.8 382.8 1879C391.067 1874.2 397.6 1867.33 402.4 1858.4C407.2 1849.33 409.6 1838.87 409.6 1827C409.6 1815.13 407.2 1804.73 402.4 1795.8C397.6 1786.87 391.067 1780 382.8 1775.2C374.533 1770.4 365.2 1768 354.8 1768C344.4 1768 335.067 1770.4 326.8 1775.2C318.533 1780 312 1786.87 307.2 1795.8C302.4 1804.73 300 1815.13 300 1827C300 1838.87 302.4 1849.33 307.2 1858.4C312 1867.33 318.533 1874.2 326.8 1879C335.067 1883.8 344.4 1886.2 354.8 1886.2ZM544.217 1787.8V1897H530.217V1877.8C527.017 1884.6 522.084 1889.8 515.417 1893.4C508.751 1897 501.284 1898.8 493.017 1898.8C479.951 1898.8 469.284 1894.8 461.017 1886.8C452.751 1878.67 448.617 1866.93 448.617 1851.6V1787.8H462.417V1850C462.417 1861.87 465.351 1870.93 471.217 1877.2C477.217 1883.47 485.351 1886.6 495.617 1886.6C506.151 1886.6 514.551 1883.27 520.817 1876.6C527.084 1869.93 530.217 1860.13 530.217 1847.2V1787.8H544.217ZM583.58 1885.4H640.78V1897H567.58V1885.4L623.78 1799.4H568.58V1787.8H639.78V1799.4L583.58 1885.4ZM763.261 1836.8C763.261 1841.6 763.128 1845.27 762.861 1847.8H672.261C672.661 1856.07 674.661 1863.13 678.261 1869C681.861 1874.87 686.594 1879.33 692.461 1882.4C698.328 1885.33 704.728 1886.8 711.661 1886.8C720.728 1886.8 728.328 1884.6 734.461 1880.2C740.728 1875.8 744.861 1869.87 746.861 1862.4H761.661C758.994 1873.07 753.261 1881.8 744.461 1888.6C735.794 1895.27 724.861 1898.6 711.661 1898.6C701.394 1898.6 692.194 1896.33 684.061 1891.8C675.928 1887.13 669.528 1880.6 664.861 1872.2C660.328 1863.67 658.061 1853.73 658.061 1842.4C658.061 1831.07 660.328 1821.13 664.861 1812.6C669.394 1804.07 675.728 1797.53 683.861 1793C691.994 1788.47 701.261 1786.2 711.661 1786.2C722.061 1786.2 731.128 1788.47 738.861 1793C746.728 1797.53 752.728 1803.67 756.861 1811.4C761.128 1819 763.261 1827.47 763.261 1836.8ZM749.061 1836.4C749.194 1828.27 747.528 1821.33 744.061 1815.6C740.728 1809.87 736.128 1805.53 730.261 1802.6C724.394 1799.67 717.994 1798.2 711.061 1798.2C700.661 1798.2 691.794 1801.53 684.461 1808.2C677.128 1814.87 673.061 1824.27 672.261 1836.4H749.061ZM802.675 1811.8C806.142 1804.47 811.608 1798.4 819.075 1793.6C826.675 1788.67 835.675 1786.2 846.075 1786.2C855.942 1786.2 864.808 1788.53 872.675 1793.2C880.675 1797.73 886.875 1804.27 891.275 1812.8C895.808 1821.2 898.075 1831 898.075 1842.2C898.075 1853.4 895.808 1863.27 891.275 1871.8C886.875 1880.33 880.675 1886.93 872.675 1891.6C864.808 1896.27 855.942 1898.6 846.075 1898.6C835.808 1898.6 826.875 1896.2 819.275 1891.4C811.675 1886.47 806.142 1880.33 802.675 1873V1948.6H788.875V1787.8H802.675V1811.8ZM883.875 1842.2C883.875 1833.13 882.075 1825.33 878.475 1818.8C875.008 1812.13 870.208 1807.07 864.075 1803.6C857.942 1800.13 851.008 1798.4 843.275 1798.4C835.808 1798.4 828.942 1800.2 822.675 1803.8C816.542 1807.4 811.675 1812.53 808.075 1819.2C804.475 1825.87 802.675 1833.6 802.675 1842.4C802.675 1851.2 804.475 1858.93 808.075 1865.6C811.675 1872.27 816.542 1877.4 822.675 1881C828.942 1884.6 835.808 1886.4 843.275 1886.4C851.008 1886.4 857.942 1884.67 864.075 1881.2C870.208 1877.6 875.008 1872.47 878.475 1865.8C882.075 1859 883.875 1851.13 883.875 1842.2ZM1022.64 1836.8C1022.64 1841.6 1022.5 1845.27 1022.24 1847.8H931.636C932.036 1856.07 934.036 1863.13 937.636 1869C941.236 1874.87 945.969 1879.33 951.836 1882.4C957.703 1885.33 964.103 1886.8 971.036 1886.8C980.103 1886.8 987.703 1884.6 993.836 1880.2C1000.1 1875.8 1004.24 1869.87 1006.24 1862.4H1021.04C1018.37 1873.07 1012.64 1881.8 1003.84 1888.6C995.169 1895.27 984.236 1898.6 971.036 1898.6C960.769 1898.6 951.569 1896.33 943.436 1891.8C935.303 1887.13 928.903 1880.6 924.236 1872.2C919.703 1863.67 917.436 1853.73 917.436 1842.4C917.436 1831.07 919.703 1821.13 924.236 1812.6C928.769 1804.07 935.103 1797.53 943.236 1793C951.369 1788.47 960.636 1786.2 971.036 1786.2C981.436 1786.2 990.503 1788.47 998.236 1793C1006.1 1797.53 1012.1 1803.67 1016.24 1811.4C1020.5 1819 1022.64 1827.47 1022.64 1836.8ZM1008.44 1836.4C1008.57 1828.27 1006.9 1821.33 1003.44 1815.6C1000.1 1809.87 995.503 1805.53 989.636 1802.6C983.769 1799.67 977.369 1798.2 970.436 1798.2C960.036 1798.2 951.169 1801.53 943.836 1808.2C936.503 1814.87 932.436 1824.27 931.636 1836.4H1008.44ZM1167.73 1757.2V1863C1167.73 1873.67 1164.47 1882.27 1157.93 1888.8C1151.4 1895.2 1142.67 1898.4 1131.73 1898.4C1120.4 1898.4 1111.33 1895 1104.53 1888.2C1097.87 1881.27 1094.53 1871.93 1094.53 1860.2H1108.73C1108.87 1867.8 1110.73 1874 1114.33 1878.8C1118.07 1883.6 1123.87 1886 1131.73 1886C1139.2 1886 1144.73 1883.8 1148.33 1879.4C1151.93 1875 1153.73 1869.53 1153.73 1863V1757.2H1167.73ZM1301.74 1836.8C1301.74 1841.6 1301.6 1845.27 1301.34 1847.8H1210.74C1211.14 1856.07 1213.14 1863.13 1216.74 1869C1220.34 1874.87 1225.07 1879.33 1230.94 1882.4C1236.8 1885.33 1243.2 1886.8 1250.14 1886.8C1259.2 1886.8 1266.8 1884.6 1272.94 1880.2C1279.2 1875.8 1283.34 1869.87 1285.34 1862.4H1300.14C1297.47 1873.07 1291.74 1881.8 1282.94 1888.6C1274.27 1895.27 1263.34 1898.6 1250.14 1898.6C1239.87 1898.6 1230.67 1896.33 1222.54 1891.8C1214.4 1887.13 1208 1880.6 1203.34 1872.2C1198.8 1863.67 1196.54 1853.73 1196.54 1842.4C1196.54 1831.07 1198.8 1821.13 1203.34 1812.6C1207.87 1804.07 1214.2 1797.53 1222.34 1793C1230.47 1788.47 1239.74 1786.2 1250.14 1786.2C1260.54 1786.2 1269.6 1788.47 1277.34 1793C1285.2 1797.53 1291.2 1803.67 1295.34 1811.4C1299.6 1819 1301.74 1827.47 1301.74 1836.8ZM1287.54 1836.4C1287.67 1828.27 1286 1821.33 1282.54 1815.6C1279.2 1809.87 1274.6 1805.53 1268.74 1802.6C1262.87 1799.67 1256.47 1798.2 1249.54 1798.2C1239.14 1798.2 1230.27 1801.53 1222.94 1808.2C1215.6 1814.87 1211.54 1824.27 1210.74 1836.4H1287.54ZM1320.95 1842.2C1320.95 1831 1323.15 1821.2 1327.55 1812.8C1332.08 1804.27 1338.28 1797.73 1346.15 1793.2C1354.15 1788.53 1363.15 1786.2 1373.15 1786.2C1383.55 1786.2 1392.48 1788.6 1399.95 1793.4C1407.55 1798.2 1413.02 1804.33 1416.35 1811.8V1787.8H1430.35V1897H1416.35V1872.8C1412.88 1880.27 1407.35 1886.47 1399.75 1891.4C1392.28 1896.2 1383.35 1898.6 1372.95 1898.6C1363.08 1898.6 1354.15 1896.27 1346.15 1891.6C1338.28 1886.93 1332.08 1880.33 1327.55 1871.8C1323.15 1863.27 1320.95 1853.4 1320.95 1842.2ZM1416.35 1842.4C1416.35 1833.6 1414.55 1825.87 1410.95 1819.2C1407.35 1812.53 1402.42 1807.4 1396.15 1803.8C1390.02 1800.2 1383.22 1798.4 1375.75 1798.4C1368.02 1798.4 1361.08 1800.13 1354.95 1803.6C1348.82 1807.07 1343.95 1812.13 1340.35 1818.8C1336.88 1825.33 1335.15 1833.13 1335.15 1842.2C1335.15 1851.13 1336.88 1859 1340.35 1865.8C1343.95 1872.47 1348.82 1877.6 1354.95 1881.2C1361.08 1884.67 1368.02 1886.4 1375.75 1886.4C1383.22 1886.4 1390.02 1884.6 1396.15 1881C1402.42 1877.4 1407.35 1872.27 1410.95 1865.6C1414.55 1858.93 1416.35 1851.2 1416.35 1842.4ZM1513.51 1785.8C1526.58 1785.8 1537.25 1789.87 1545.51 1798C1553.78 1806 1557.91 1817.67 1557.91 1833V1897H1544.11V1834.6C1544.11 1822.73 1541.11 1813.67 1535.11 1807.4C1529.25 1801.13 1521.18 1798 1510.91 1798C1500.38 1798 1491.98 1801.33 1485.71 1808C1479.45 1814.67 1476.31 1824.47 1476.31 1837.4V1897H1462.31V1787.8H1476.31V1806.4C1479.78 1799.73 1484.78 1794.67 1491.31 1791.2C1497.85 1787.6 1505.25 1785.8 1513.51 1785.8ZM1656.68 1817V1828.8H1578.88V1817H1656.68ZM1706.59 1749V1897H1692.59V1749H1706.59ZM1786.09 1898.6C1775.82 1898.6 1766.56 1896.33 1758.29 1891.8C1750.16 1887.13 1743.69 1880.6 1738.89 1872.2C1734.22 1863.67 1731.89 1853.73 1731.89 1842.4C1731.89 1831.07 1734.29 1821.2 1739.09 1812.8C1743.89 1804.27 1750.42 1797.73 1758.69 1793.2C1766.96 1788.53 1776.22 1786.2 1786.49 1786.2C1796.76 1786.2 1806.02 1788.53 1814.29 1793.2C1822.69 1797.73 1829.22 1804.27 1833.89 1812.8C1838.69 1821.2 1841.09 1831.07 1841.09 1842.4C1841.09 1853.6 1838.69 1863.47 1833.89 1872C1829.09 1880.53 1822.49 1887.13 1814.09 1891.8C1805.69 1896.33 1796.36 1898.6 1786.09 1898.6ZM1786.09 1886.4C1793.29 1886.4 1799.96 1884.8 1806.09 1881.6C1812.22 1878.27 1817.16 1873.33 1820.89 1866.8C1824.76 1860.13 1826.69 1852 1826.69 1842.4C1826.69 1832.8 1824.82 1824.73 1821.09 1818.2C1817.36 1811.53 1812.42 1806.6 1806.29 1803.4C1800.16 1800.07 1793.49 1798.4 1786.29 1798.4C1779.09 1798.4 1772.42 1800.07 1766.29 1803.4C1760.16 1806.6 1755.22 1811.53 1751.49 1818.2C1747.89 1824.73 1746.09 1832.8 1746.09 1842.4C1746.09 1852 1747.89 1860.13 1751.49 1866.8C1755.22 1873.33 1760.09 1878.27 1766.09 1881.6C1772.22 1884.8 1778.89 1886.4 1786.09 1886.4ZM1961.21 1787.8V1897H1947.21V1877.8C1944.01 1884.6 1939.08 1889.8 1932.41 1893.4C1925.74 1897 1918.28 1898.8 1910.01 1898.8C1896.94 1898.8 1886.28 1894.8 1878.01 1886.8C1869.74 1878.67 1865.61 1866.93 1865.61 1851.6V1787.8H1879.41V1850C1879.41 1861.87 1882.34 1870.93 1888.21 1877.2C1894.21 1883.47 1902.34 1886.6 1912.61 1886.6C1923.14 1886.6 1931.54 1883.27 1937.81 1876.6C1944.08 1869.93 1947.21 1860.13 1947.21 1847.2V1787.8H1961.21ZM2000.17 1767.2C1997.37 1767.2 1994.97 1766.2 1992.97 1764.2C1990.97 1762.2 1989.97 1759.73 1989.97 1756.8C1989.97 1753.87 1990.97 1751.47 1992.97 1749.6C1994.97 1747.6 1997.37 1746.6 2000.17 1746.6C2002.97 1746.6 2005.37 1747.6 2007.37 1749.6C2009.37 1751.47 2010.37 1753.87 2010.37 1756.8C2010.37 1759.73 2009.37 1762.2 2007.37 1764.2C2005.37 1766.2 2002.97 1767.2 2000.17 1767.2ZM2007.17 1787.8V1897H1993.17V1787.8H2007.17ZM2076.48 1898.6C2063.94 1898.6 2053.68 1895.73 2045.68 1890C2037.81 1884.13 2033.41 1876.2 2032.48 1866.2H2046.88C2047.54 1872.33 2050.41 1877.33 2055.48 1881.2C2060.68 1884.93 2067.61 1886.8 2076.28 1886.8C2083.88 1886.8 2089.81 1885 2094.08 1881.4C2098.48 1877.8 2100.68 1873.33 2100.68 1868C2100.68 1864.27 2099.48 1861.2 2097.08 1858.8C2094.68 1856.4 2091.61 1854.53 2087.88 1853.2C2084.28 1851.73 2079.34 1850.2 2073.08 1848.6C2064.94 1846.47 2058.34 1844.33 2053.28 1842.2C2048.21 1840.07 2043.88 1836.93 2040.28 1832.8C2036.81 1828.53 2035.08 1822.87 2035.08 1815.8C2035.08 1810.47 2036.68 1805.53 2039.88 1801C2043.08 1796.47 2047.61 1792.87 2053.48 1790.2C2059.34 1787.53 2066.01 1786.2 2073.48 1786.2C2085.21 1786.2 2094.68 1789.2 2101.88 1795.2C2109.08 1801.07 2112.94 1809.2 2113.48 1819.6H2099.48C2099.08 1813.2 2096.54 1808.07 2091.88 1804.2C2087.34 1800.2 2081.08 1798.2 2073.08 1798.2C2066.01 1798.2 2060.28 1799.87 2055.88 1803.2C2051.48 1806.53 2049.27 1810.67 2049.27 1815.6C2049.27 1819.87 2050.54 1823.4 2053.08 1826.2C2055.74 1828.87 2059.01 1831 2062.88 1832.6C2066.74 1834.07 2071.94 1835.73 2078.48 1837.6C2086.34 1839.73 2092.61 1841.8 2097.28 1843.8C2101.94 1845.8 2105.94 1848.73 2109.28 1852.6C2112.61 1856.47 2114.34 1861.6 2114.48 1868C2114.48 1873.87 2112.88 1879.13 2109.68 1883.8C2106.48 1888.33 2102.01 1891.93 2096.28 1894.6C2090.54 1897.27 2083.94 1898.6 2076.48 1898.6Z" fill="white"/>
<path d="M2219.62 815.839C2157.56 1326.49 1985.59 1518.24 1765.88 1518.24H1620.17C1486.68 1518.24 1411.73 1462.92 1376.86 1307.64C1327.24 1410.95 1255.9 1496.19 1165.67 1560.58H2226.81C2226.81 1224.3 2236.36 957.829 2250.71 825.846L2219.57 815.886L2219.62 815.839Z" fill="white"/>
<path d="M1512.57 -183V-163.126C1393.21 -120.784 1352.6 -26.0931 1352.6 163.196V480.808L1351.85 903.072V906.268C1351.94 910.159 1351.94 914.005 1351.94 917.896C1351.94 1343.82 1098.68 1590.41 675.946 1590.41C670.082 1590.41 664.307 1590.41 658.621 1590.23C657.733 1590.32 656.889 1590.32 656.133 1590.23C350.634 1584.72 137.979 1448.89 48.1106 1208.78C16.4367 1124.37 0 1026.99 0 917.896C0 494.521 250.859 247.88 675.991 247.88C710.952 247.88 744.802 249.501 777.454 252.883V316.813C747.335 294.021 713.262 282.671 675.991 282.671C511.091 282.671 410.827 499.385 410.827 917.85C410.827 1268.96 480.617 1478.07 599.494 1537.69C599.582 1537.69 599.582 1537.79 599.671 1537.69C611.621 1539.5 623.749 1540.52 636.143 1540.52C855.816 1540.52 937.022 1328.81 937.022 910.437V826.541C937.022 825.753 936.934 824.827 936.934 824.132V285.312H937.022V163.149C937.022 -26.1395 896.419 -120.83 777.054 -163.172V-183H1512.62H1512.57Z" fill="white"/>
</svg>
